#!OML:ASF X:\für Bonn\!DataBase\2005_08_11_Bastian_Final\c3d\Bastian.ASF
:FULLY-SPECIFIED
:DEGREES
63
root -0.13227 11.0902 6.24608 171.61 -9.93325 -180.364
lowerback 25.7868 -1.66202 -0.135024
upperback 5.08837 -3.56075 -2.71856
thorax -8.83135 -2.16977 -1.70272
lowerneck -9.62763 -7.13643 -1.24393
upperneck -9.08107 -10.2424 10.7266
head -0.585756 -5.66652 3.37669
rclavicle 2.08724e-014 3.18055e-015
rhumerus 64.4527 9.93495 -7.8847
rradius 38.9666
rwrist -45.3337
rhand -43.2883 -4.70298
rfingers 7.12502
rthumb -16.136 -34.0513
lclavicle 2.08724e-014 3.18055e-015
lhumerus 71.3651 -8.68263 -8.47208
lradius 32.4096
lwrist 4.30662
lhand -44.0384 12.8397
lfingers 7.12502
lthumb -16.8581 42.128
rfemur -46.7644 -32.2424 16.6445
rtibia 124.586
rfoot -41.7961 4.72829
rtoes -1.07335
lfemur -49.4613 10.0088 -17.109
ltibia 121.489
lfoot -35.8595 -24.4246
ltoes 1.58838
64
root -0.12655 10.8592 6.26623 171.586 -9.88072 -180.34
lowerback 26.104 -1.61704 -0.0549204
upperback 5.14098 -3.51349 -2.76143
thorax -8.93976 -2.15891 -1.80103
lowerneck -9.76476 -7.15703 -1.11973
upperneck -9.23534 -10.3022 10.7037
head -0.617799 -5.71385 3.34408
rclavicle -1.39149e-014 -3.18055e-015
rhumerus 64.2208 9.58451 -7.35055
rradius 39.2261
rwrist -45.6894
rhand -43.4677 -4.70028
rfingers 7.12502
rthumb -16.3087 -34.0345
lclavicle -1.39149e-014 -3.18055e-015
lhumerus 71.4252 -8.34551 -8.85654
lradius 32.5498
lwrist 4.61214
lhand -44.139 12.9042
lfingers 7.12502
lthumb -16.955 42.1842
rfemur -47.7687 -33.562 16.4276
rtibia 126.64
rfoot -42.3565 5.43475
rtoes -0.0365465
lfemur -50.7713 10.5848 -16.9292
ltibia 123.705
lfoot -36.1428 -24.8721
ltoes 1.77831
65
root -0.121667 10.6283 6.28622 171.545 -9.81132 -180.336
lowerback 26.4372 -1.57645 0.0196772
upperback 5.19178 -3.47543 -2.81192
thorax -9.05815 -2.15292 -1.90159
lowerneck -9.91027 -7.16625 -1.04146
upperneck -9.36378 -10.3427 10.7115
head -0.636925 -5.74894 3.32939
rclavicle -5.1684e-015 -1.82882e-014
rhumerus 64.0369 9.2578 -6.72362
rradius 39.5126
rwrist -46.2112
rhand -43.6272 -4.71827
rfingers 7.12502
rthumb -16.4623 -34.0398
lclavicle -5.1684e-015 -1.82882e-014
lhumerus 71.4577 -8.05074 -9.23173
lradius 32.6966
lwrist 4.94995
lhand -44.2082 12.8882
lfingers 7.12502
lthumb -17.0216 42.1624
rfemur -48.6905 -35.0156 16.1175
rtibia 128.651
rfoot -42.922 6.30101
rtoes 1.28263
lfemur -52.0323 11.2692 -16.7658
ltibia 125.872
lfoot -36.4868 -25.2819
ltoes 1.84545
66
root -0.116626 10.3997 6.30446 171.492 -9.75614 -180.306
lowerback 26.7583 -1.53921 0.110319
upperback 5.25869 -3.4367 -2.84626
thorax -9.15113 -2.14781 -1.99485
lowerneck -10.1134 -7.1811 -0.954887
upperneck -9.45695 -10.395 10.6971
head -0.636237 -5.78712 3.3012
rclavicle -1.21259e-014 -4.53229e-014
rhumerus 63.8626 8.93437 -6.01784
rradius 39.8005
rwrist -46.7807
rhand -43.8091 -4.76314
rfingers 7.12502
rthumb -16.6374 -34.0701
lclavicle -1.21259e-014 -4.53229e-014
lhumerus 71.4793 -7.77281 -10.117
lradius 32.9678
lwrist 5.80615
lhand -44.3925 12.939
lfingers 7.12502
lthumb -17.199 42.1979
rfemur -49.5215 -36.6516 15.7882
rtibia 130.612
rfoot -43.5366 7.09769
rtoes 2.40658
lfemur -53.2541 12.0126 -16.5762
ltibia 127.992
lfoot -36.8733 -25.6503
ltoes 1.72913
67
root -0.111788 10.1743 6.32259 171.427 -9.69373 -180.298
lowerback 27.0997 -1.49396 0.183159
upperback 5.32418 -3.39333 -2.87749
thorax -9.25391 -2.14054 -2.07583
lowerneck -10.2935 -7.1945 -0.902186
upperneck -9.57408 -10.4413 10.7053
head -0.644387 -5.82348 3.28881
rclavicle 2.0276e-014 -6.12257e-014
rhumerus 63.709 8.61774 -5.24552
rradius 40.0768
rwrist -47.4235
rhand -43.9641 -4.77566
rfingers 7.12502
rthumb -16.7866 -34.07
lclavicle 2.0276e-014 -6.12257e-014
lhumerus 71.4768 -7.50671 -10.7038
lradius 33.188
lwrist 6.35664
lhand -44.4953 12.9437
lfingers 7.12502
lthumb -17.2979 42.1938
rfemur -50.2422 -38.4832 15.3842
rtibia 132.534
rfoot -44.1871 7.79175
rtoes 3.51257
lfemur -54.4202 12.8632 -16.4282
ltibia 130.058
lfoot -37.3495 -25.8853
ltoes 1.44035
68
root -0.106684 9.94881 6.33932 171.365 -9.62638 -180.291
lowerback 27.4358 -1.44625 0.258121
upperback 5.37765 -3.34467 -2.91439
thorax -9.367 -2.13024 -2.16689
lowerneck -10.4257 -7.21426 -0.848346
upperneck -9.70413 -10.4935 10.7326
head -0.663293 -5.86424 3.28507
rclavicle 1.19271e-014 -4.85035e-014
rhumerus 63.5387 8.32445 -4.61974
rradius 40.3171
rwrist -47.9605
rhand -44.0431 -4.79393
rfingers 7.12502
rthumb -16.8627 -34.0818
lclavicle 1.19271e-014 -4.85035e-014
lhumerus 71.4852 -7.24613 -11.1322
lradius 33.3358
lwrist 6.65571
lhand -44.5451 12.8227
lfingers 7.12502
lthumb -17.3459 42.0687
rfemur -50.8784 -40.5443 14.9158
rtibia 134.433
rfoot -44.9133 8.41834
rtoes 4.29572
lfemur -55.5537 13.8241 -16.2784
ltibia 132.096
lfoot -37.9693 -26.0079
ltoes 0.624481
69
root -0.102124 9.72223 6.35604 171.27 -9.56385 -180.257
lowerback 27.7624 -1.40397 0.357376
upperback 5.46301 -3.29943 -2.94061
thorax -9.43882 -2.12446 -2.25996
lowerneck -10.6312 -7.21401 -0.76325
upperneck -9.80208 -10.528 10.7387
head -0.663792 -5.895 3.26499
rclavicle 2.16675e-014 -8.74653e-015
rhumerus 63.3681 8.00244 -4.05453
rradius 40.5378
rwrist -48.4673
rhand -44.0678 -4.8127
rfingers 7.12502
rthumb -16.8865 -34.0985
lclavicle 2.16675e-014 -8.74653e-015
lhumerus 71.4661 -6.96348 -11.3647
lradius 33.4328
lwrist 6.71088
lhand -44.5103 12.7369
lfingers 7.12502
lthumb -17.3124 41.9858
rfemur -51.3466 -42.9017 14.3289
rtibia 136.335
rfoot -45.755 8.97842
rtoes 5.11038
lfemur -56.6512 14.899 -16.0689
ltibia 134.112
lfoot -38.5941 -26.214
ltoes 0.116226
70
root -0.0974748 9.49572 6.37221 171.175 -9.49262 -180.224
lowerback 28.0764 -1.3578 0.45118
upperback 5.54451 -3.24775 -2.95506
thorax -9.50637 -2.11497 -2.33985
lowerneck -10.8328 -7.21971 -0.684259
upperneck -9.8902 -10.5686 10.7216
head -0.662587 -5.92706 3.23779
rclavicle 1.35174e-014 -7.95139e-016
rhumerus 63.2309 7.69775 -3.623
rradius 40.7061
rwrist -48.8707
rhand -44.0676 -4.84878
rfingers 7.12502
rthumb -16.8862 -34.1346
lclavicle 1.35174e-014 -7.95139e-016
lhumerus 71.4463 -6.68734 -11.4584
lradius 33.4699
lwrist 6.59616
lhand -44.4552 12.5951
lfingers 7.12502
lthumb -17.2593 41.8487
rfemur -51.7059 -45.5082 13.6434
rtibia 138.216
rfoot -46.6298 9.50309
rtoes 5.97309
lfemur -57.7404 16.1272 -15.8294
ltibia 136.111
lfoot -39.2452 -26.5002
ltoes -0.173631
71
root -0.0932926 9.27023 6.38756 171.047 -9.42026 -180.189
lowerback 28.4038 -1.31139 0.533921
upperback 5.63523 -3.19854 -2.94791
thorax -9.5675 -2.10703 -2.38829
lowerneck -11.0557 -7.23378 -0.651337
upperneck -9.9435 -10.6147 10.6935
head -0.644479 -5.95675 3.21214
rclavicle -1.13307e-014 -1.66979e-014
rhumerus 63.1216 7.39113 -3.37455
rradius 40.827
rwrist -49.1586
rhand -44.0034 -4.79089
rfingers 7.12502
rthumb -16.8245 -34.082
lclavicle -1.13307e-014 -1.66979e-014
lhumerus 71.3976 -6.41494 -11.371
lradius 33.4438
lwrist 6.28504
lhand -44.3017 12.4253
lfingers 7.12502
lthumb -17.1116 41.6918
rfemur -51.8224 -48.368 12.7494
rtibia 140.074
rfoot -47.6198 9.98247
rtoes 6.6141
lfemur -58.7593 17.4997 -15.5333
ltibia 138.071
lfoot -39.9142 -26.8905
ltoes -0.2643
72
root -0.0891426 9.04577 6.40261 170.922 -9.35248 -180.153
lowerback 28.6963 -1.26883 0.639234
upperback 5.74238 -3.15139 -2.95903
thorax -9.59373 -2.10205 -2.47111
lowerneck -11.292 -7.23441 -0.60037
upperneck -10.0175 -10.6493 10.7029
head -0.630338 -5.98475 3.19667
rclavicle 2.42517e-014 -6.36111e-015
rhumerus 63.0078 7.07957 -3.33585
rradius 40.8752
rwrist -49.3264
rhand -43.8866 -4.69218
rfingers 7.12502
rthumb -16.712 -33.9928
lclavicle 2.42517e-014 -6.36111e-015
lhumerus 71.3666 -6.12924 -11.1345
lradius 33.3892
lwrist 5.87368
lhand -44.1357 12.2551
lfingers 7.12502
lthumb -16.9519 41.5354
rfemur -51.7027 -51.4975 11.6515
rtibia 141.896
rfoot -48.6781 10.3396
rtoes 7.13177
lfemur -59.7872 19.0361 -15.2222
ltibia 140.007
lfoot -40.6204 -27.2553
ltoes -0.451984
73
root -0.0848792 8.82484 6.41707 170.771 -9.26076 -180.113
lowerback 28.9994 -1.2165 0.741174
upperback 5.85244 -3.09427 -2.96909
thorax -9.62015 -2.09315 -2.55453
lowerneck -11.5173 -7.23411 -0.503965
upperneck -10.0717 -10.6863 10.6795
head -0.616136 -6.01333 3.16216
rclavicle 9.54166e-015 -3.4191e-014
rhumerus 62.9158 6.76936 -3.47909
rradius 40.8688
rwrist -49.3968
rhand -43.761 -4.56559
rfingers 7.12502
rthumb -16.5912 -33.8764
lclavicle 9.54166e-015 -3.4191e-014
lhumerus 71.3355 -5.87848 -10.8155
lradius 33.3238
lwrist 5.42851
lhand -43.9701 12.0542
lfingers 7.12502
lthumb -16.7924 41.348
rfemur -51.2792 -54.8182 10.2787
rtibia 143.684
rfoot -49.7214 10.6557
rtoes 7.69374
lfemur -60.7406 20.7947 -14.8641
ltibia 141.891
lfoot -41.337 -27.6748
ltoes -0.43471
74
root -0.0806965 8.60751 6.43166 170.614 -9.19886 -180.069
lowerback 29.317 -1.18003 0.830406
upperback 5.95724 -3.05818 -2.95971
thorax -9.65823 -2.09314 -2.60089
lowerneck -11.7257 -7.22001 -0.455593
upperneck -10.1375 -10.6987 10.6825
head -0.605575 -6.02936 3.14719
rclavicle -2.64384e-014 -4.85035e-014
rhumerus 62.8733 6.43113 -3.72388
rradius 40.8368
rwrist -49.445
rhand -43.5611 -4.37228
rfingers 7.12502
rthumb -16.3986 -33.6991
lclavicle -2.64384e-014 -4.85035e-014
lhumerus 71.2782 -5.64674 -10.5036
lradius 33.258
lwrist 5.11559
lhand -43.816 11.8598
lfingers 7.12502
lthumb -16.6441 41.1661
rfemur -50.4848 -58.3166 8.57136
rtibia 145.416
rfoot -50.7167 10.8872
rtoes 8.32603
lfemur -61.6835 22.6444 -14.4826
ltibia 143.728
lfoot -42.062 -28.0806
ltoes -0.395666
75
root -0.0772699 8.3961 6.4448 170.402 -9.11474 -179.977
lowerback 29.6691 -1.1494 0.982726
upperback 6.08162 -3.0167 -2.95332
thorax -9.69213 -2.09483 -2.68873
lowerneck -11.9764 -7.20966 -0.342711
upperneck -10.1801 -10.7282 10.6498
head -0.585626 -6.05437 3.10562
rclavicle 2.48481e-014 8.74653e-015
rhumerus 62.8234 6.05281 -4.10993
rradius 40.7812
rwrist -49.371
rhand -43.303 -4.25902
rfingers 7.12502
rthumb -16.1502 -33.6062
lclavicle 2.48481e-014 8.74653e-015
lhumerus 71.2141 -5.40357 -10.3484
lradius 33.2575
lwrist 5.03544
lhand -43.7131 11.7145
lfingers 7.12502
lthumb -16.545 41.0292
rfemur -48.962 -61.9794 6.27139
rtibia 147.085
rfoot -51.7067 10.948
rtoes 8.82926
lfemur -62.5182 24.7678 -13.9831
ltibia 145.51
lfoot -42.8144 -28.5008
ltoes -0.439414
76
root -0.0741629 8.18874 6.4578 170.16 -9.02474 -179.905
lowerback 30.0726 -1.10883 1.11759
upperback 6.20012 -2.96948 -2.9449
thorax -9.75534 -2.09442 -2.76536
lowerneck -12.2368 -7.19844 -0.228002
upperneck -10.2034 -10.7568 10.5995
head -0.559262 -6.07685 3.05687
rclavicle 2.20651e-014 1.27222e-014
rhumerus 62.7772 5.68573 -4.45303
rradius 40.724
rwrist -49.3404
rhand -43.0724 -4.0819
rfingers 7.12502
rthumb -15.9281 -33.4469
lclavicle 2.20651e-014 1.27222e-014
lhumerus 71.1495 -5.18112 -10.3721
lradius 33.317
lwrist 5.25321
lhand -43.6487 11.7098
lfingers 7.12502
lthumb -16.483 41.0296
rfemur -46.6179 -65.7382 3.14148
rtibia 148.704
rfoot -52.5817 10.9224
rtoes 9.45174
lfemur -63.2683 27.0509 -13.4692
ltibia 147.231
lfoot -43.5055 -28.917
ltoes -0.343512
